<svg width="1551" height="1190" viewBox="0 0 1551 1190" fill="none" xmlns="http://www.w3.org/2000/svg">
<path d="M1129.95 2.33717C1131.74 3.89114 1133.86 5.02299 1136.14 5.64789C1139.05 5.64789 1138.66 5.6479 1129.56 19.4754C1112.36 45.238 1104.69 76.25 1107.88 107.116C1110.4 169.437 1133.24 222.8 1189.96 297.587C1232.94 355.039 1245.91 385.227 1237.97 411.519C1233.71 425.542 1222.87 435.669 1188.6 457.87C1161.82 474 1138.26 495.002 1119.11 519.803C1097.6 549.183 1068.84 572.409 1035.67 587.187C1027.54 590.695 1002.37 599.068 979.529 606.664C904.028 629.645 888.736 636.656 865.31 658.079C841.886 679.503 832.206 704.821 829.304 771.037C826.399 837.255 822.14 856.536 808.201 877.18C800.813 888.238 790.386 896.9 778.195 902.108C761.553 910.433 743.152 914.576 724.57 914.182C683.916 915.935 655.266 909.898 572.602 882.242C472.128 848.55 463.61 846.213 438.25 843.292C421.458 839.913 404.021 842.394 388.818 850.324C373.613 858.255 361.551 871.163 354.619 886.917C325.193 936.969 307.384 955.665 276.021 971.246C244.341 984.85 210.373 992.253 175.936 993.058C134.965 994.798 93.9221 992.514 53.3924 986.242L6.15607 980.984H0.735596V970.662C0.735596 964.818 0.735597 959.56 2.47922 959.171C11.6909 959.153 20.8894 959.935 29.9693 961.507C61.1071 966.221 92.5637 968.5 124.053 968.325C165.093 970.256 206.057 963.143 244.08 947.485C276.795 931.711 290.541 913.598 319.58 848.356C335.453 812.714 351.909 799.081 383.851 795.966C407.663 793.823 443.671 803.95 508.716 831.022C559.977 855.167 614.109 872.578 669.784 882.827C734.444 891.007 774.516 868.219 785.939 817.194C789.096 794.878 790.518 772.348 790.197 749.808C791.939 691.383 793.683 675.411 802.006 652.43C807.852 635.077 818.295 619.657 832.206 607.832C858.147 583.683 884.671 574.529 949.716 566.154C1037.03 555.248 1062.19 544.147 1106.91 496.432C1124.11 477.08 1143.61 459.942 1164.98 445.405C1192.1 425.929 1201.19 417.361 1207 406.455C1219.78 382.11 1211.06 354.065 1173.7 298.755C1129.17 233.122 1110.2 193.197 1099.75 142.95C1094.63 111.022 1094.63 78.4749 1099.75 46.5457C1104.09 29.1809 1112.67 13.1808 1124.72 0C1126.77 0.776986 1128.66 1.89642 1130.34 3.31072L1129.95 2.33717Z" fill="#2E90FA"/>
<path d="M1072.83 4.47465C1064.78 29.5586 1062.08 56.0816 1064.93 82.2934C1071.02 149.305 1090.72 214.336 1122.79 273.34C1144.79 318.669 1148.26 328.592 1148.45 348.63C1148.45 374.893 1140.16 387.539 1103.7 420.613C1047.76 470.223 1028.08 480.34 979.668 484.813C946.959 486.273 914.188 485.037 881.679 481.117C851.719 477.248 821.281 480.445 792.755 490.454C757.649 506.214 736.815 540.26 726.207 599.792C720.579 633.541 717.74 667.704 717.72 701.929C715.984 756.402 714.054 768.853 704.987 787.724C692.256 813.016 665.252 824.299 627.832 820.02C590.41 815.74 560.897 805.817 488.562 773.717C416.226 741.617 396.359 734.807 366.267 733.835C350.158 731.408 333.7 734.185 319.252 741.767C304.804 749.352 293.104 761.353 285.832 776.052C278.988 791.023 272.936 806.349 267.7 821.966C260.948 841.421 253.04 862.042 249.954 868.462C242.619 883.502 232.159 896.773 219.283 907.371C192.101 924.071 161.48 934.255 129.78 937.138C95.7655 940.073 61.564 940.073 27.5475 937.138L0.735596 934.803V914.959H50.1157C72.6294 916.145 95.2043 914.842 117.436 911.069C147.263 907.428 175.336 894.895 198.064 875.077C214.172 858.891 225.865 838.789 232.015 816.713C240.378 790.494 251.365 765.203 264.805 741.227C271.189 730.996 279.644 722.242 289.617 715.535C299.589 708.831 310.855 704.325 322.675 702.318C338.338 699.188 354.461 699.188 370.127 702.318C398.866 706.792 418.156 713.601 500.522 747.842C555.688 770.604 581.344 777.024 612.978 775.856C620.483 776.627 628.064 775.738 635.193 773.253C642.322 770.766 648.829 766.743 654.257 761.461C668.338 747.842 676.247 722.551 680.104 679.167C684.329 628.245 691.998 577.674 703.059 527.807C719.841 465.942 751.089 441.041 812.429 441.041C824.196 441.041 846.378 442.597 862.003 444.348L911.962 450.379C940.783 454.041 969.945 454.041 998.764 450.379C1034.29 442.186 1066.55 423.409 1091.35 396.488C1107.87 383.916 1119.31 365.742 1123.57 345.323C1127.23 325.868 1123.57 309.721 1100.61 254.663C1074.91 196.139 1058.51 133.9 1052 70.2315C1049.94 48.7598 1051.24 27.0942 1055.86 6.03069C1057.4 0.1945 1057.6 0 1065.31 0C1073.03 0 1073.03 6.41338e-06 1071.87 3.69561L1072.83 4.47465Z" fill="#2E90FA"/>
<path d="M978.37 3.89425C978.37 6.03588 980.496 15.7704 982.042 25.8961C983.589 36.0197 987.842 55.2964 991.323 69.12C994.802 82.9442 1002.15 110.008 1007.37 129.673C1017.42 163.638 1022.95 198.799 1023.8 234.23C1023.8 267.525 1018 284.659 1002.73 298.484C993.213 307.012 981.707 312.973 969.284 315.812C953.738 320.044 937.552 321.365 921.532 319.707C880.935 319.707 871.848 318.537 792.973 301.599C714.097 284.659 688.966 281.154 664.413 283.296C617.436 287.19 595.591 306.077 587.084 350.079C585.73 357.089 584.184 382.596 583.025 409.854C584.08 445.345 579.177 480.759 568.525 514.606C564.428 530.767 556.37 545.634 545.088 557.847C533.808 570.059 519.665 579.225 503.957 584.505C480.177 592.488 470.51 593.461 395.693 593.656C366.466 592.683 337.206 593.723 308.12 596.771C267.646 602.786 229.376 619.142 196.959 644.279C188.645 650.12 162.16 674.069 137.802 697.433C81.3511 751.562 51.9662 773.369 10.4016 791.087L0.735596 795.371V767.721L12.1412 760.128C45.5866 737.738 87.3445 706.975 116.536 683.22C150.299 653.683 187.494 628.381 227.311 607.87C271.969 585.479 302.705 579.636 389.122 576.327C419.564 576.436 449.92 573.039 479.597 566.202C497.725 561.393 514.144 551.536 526.966 537.762C539.788 523.987 548.497 506.852 552.094 488.321C559.75 456.484 562.424 423.636 560.019 390.968C560.019 331.389 561.18 319.317 569.299 301.209C575.804 288.875 585.402 278.47 597.137 271.03C621.566 259.595 648.743 255.473 675.432 259.153C709.454 262.318 743.147 268.376 776.153 277.26C860.829 296.73 868.562 297.898 909.934 297.898C926.88 299.931 944.059 298.407 960.391 293.42C970.829 290.844 980.444 285.631 988.325 278.273C996.208 270.914 1002.1 261.652 1005.44 251.364C1008.76 238.673 1009.87 225.497 1008.72 212.423C1008.72 174.455 1005.24 156.348 984.944 85.8645C976.888 59.3727 970.876 32.293 966.964 4.86781C966.964 0.389012 966.964 0 971.99 0C977.017 0 977.402 -3.20669e-06 977.791 3.6987L978.37 3.89425Z" fill="#2E90FA"/>
<path d="M903.343 12.162C907.396 28.9039 913.959 53.8202 921.294 78.5425C930.001 103.025 934.442 128.842 934.42 154.852C934.614 164.195 932.278 173.416 927.664 181.521C924.115 188.268 919.209 194.195 913.259 198.921C907.31 203.647 900.447 207.069 893.112 208.969C880.109 212.536 866.585 213.788 853.155 212.667C817.254 212.667 809.725 211.305 728.075 193.201C692.35 183.071 655.531 177.383 618.438 176.265C593.519 174.474 568.485 177.177 544.508 184.246C476.178 203.713 454.946 249.459 467.298 350.879C471.87 381.66 471.87 412.955 467.298 443.735C463.809 458.313 456.625 471.728 446.451 482.667C427.15 502.133 404.565 509.337 327.162 521.601C294.239 525.668 261.658 532.174 229.684 541.067C196.677 550.411 97.848 574.354 78.5461 577.663C70.6317 579.028 54.032 581.364 41.8707 582.726C28.4994 583.109 15.3525 586.291 3.26565 592.069C1.52924 593.627 1.1428 590.124 1.1428 571.435C0.220493 563.339 0.874868 555.138 3.07191 547.296C15.8757 545.651 28.7717 544.87 41.6774 544.96C106.507 541.92 171.024 534.046 234.703 521.405C252.848 517.318 283.345 511.284 302.649 507.974C330.106 504.407 357.222 498.546 383.718 490.454C419.622 478.579 435.642 463.007 443.943 432.055C448.039 404.697 448.039 376.875 443.943 349.517C436.414 283.719 439.695 248.291 456.488 216.755C471.159 189.307 496.253 174.318 546.824 162.444C564.155 158.905 581.87 157.661 599.52 158.745C639.805 158.214 679.941 163.725 718.617 175.097C790.422 191.254 818.797 194.563 846.979 194.563C890.603 192.033 911.257 175.097 913.765 139.863C913.556 113.333 908.991 87.0214 900.254 61.9967C894.657 40.389 890.024 19.7538 889.831 16.2497C889.638 12.7465 889.831 10.2159 895.814 9.63132C901.797 9.0478 902.183 9.63132 903.149 13.9146L903.343 12.162Z" fill="#2E90FA"/>
<path d="M721.68 11.2845C726.136 11.2845 729.817 12.4381 729.817 13.2068C728.456 16.2217 726.835 19.1165 724.975 21.8561C719.119 30.0512 711.32 36.6882 702.262 41.1804C693.207 45.6726 683.175 47.8805 673.056 47.6105C646.511 48.9865 619.902 48.4733 593.432 46.073C479.91 39.9234 402.226 48.3792 357.474 71.0588C340.322 80.6416 326.175 94.7432 316.598 111.805C307.713 129.055 303.129 148.169 303.231 167.542C298.969 226.739 293.932 250.956 279.596 279.785C267.557 307.378 245.296 329.326 217.409 341.097C196.886 351.958 173.816 357.198 150.575 356.281C132.189 356.27 113.864 354.206 95.9442 350.13C69.7975 343.828 43.0302 340.411 16.1276 339.943H1.21158V312.46C0.177977 302.746 0.833386 292.929 3.14791 283.438C17.7913 281.531 32.549 280.633 47.3183 280.747C122.096 278.825 152.124 273.635 189.513 255.761C205.154 248.982 219.405 239.405 231.552 227.508C252.282 208.288 258.093 191.182 260.611 148.899C260.542 131.326 263.087 113.84 268.166 97.0056C273.866 82.1659 283.184 68.9591 295.289 58.5659C319.692 36.1429 351.039 22.5927 384.209 20.1263C443.604 15.8265 503.235 15.8265 562.631 20.1263C629.273 23.7784 654.457 22.2399 673.442 12.823C680.837 9.72954 688.951 8.73218 696.883 9.93956C706.182 9.93956 717.225 9.93956 721.68 9.93956V11.2845Z" fill="#2E90FA"/>
<path d="M1402.92 18.2578L1422.25 19.2283L1412.98 22.1397C1390.66 27.9469 1367.99 32.2912 1345.12 35.1446C1336.69 35.8699 1328.34 37.3649 1320.18 39.61C1324.85 39.7858 1329.52 39.3947 1334.1 38.445C1363.7 35.1787 1393.04 29.7947 1421.87 22.3331C1437.14 18.2568 1447.19 17.2863 1444.29 19.8097C1425.51 26.7664 1406.08 31.838 1386.3 34.9511L1336.03 42.3268C1300.96 45.0333 1266.61 53.8347 1234.54 68.3375C1220.66 74.6449 1208.71 84.5636 1199.93 97.0661C1190.23 110.13 1185.44 126.218 1186.4 142.488C1185.94 163.059 1191.52 183.312 1202.44 200.721C1217.91 231.196 1232.8 249.442 1293.89 312.529C1346.48 366.49 1361.36 391.725 1360.97 423.559C1360.97 440.447 1353.04 469.368 1349.57 466.069C1349.88 461.549 1350.86 457.101 1352.46 452.868C1355.66 443.045 1357.04 432.716 1356.52 422.394C1356.98 412.209 1354.71 402.089 1349.95 393.083C1339.9 369.79 1320.95 345.526 1276.88 301.076C1205.54 228.479 1178.67 182.863 1180.21 137.247C1180.17 120.673 1185.77 104.581 1196.06 91.631C1212.7 68.726 1241.88 54.5558 1292.73 44.4622C1299.29 43.3604 1305.75 41.7381 1312.06 39.61C1292.45 42.3113 1273.06 46.4642 1254.06 52.0324C1239.87 55.4787 1226.5 61.7132 1214.73 70.3754C1202.95 79.0375 1192.99 89.9561 1185.43 102.501C1179.16 114.445 1176.09 127.826 1176.55 141.323C1176.55 184.415 1200.71 226.925 1261.8 290.982C1282.31 311.301 1301.67 332.75 1319.8 355.232C1338.05 375.066 1347.95 401.218 1347.43 428.217C1344.82 445.708 1338.98 462.557 1330.24 477.91C1315.95 498.445 1295.69 514.041 1272.24 522.556C1243.85 534.068 1219.13 553.126 1200.71 577.682C1190.86 593.209 1182.82 609.816 1176.73 627.18C1154.48 684.778 1115.05 734.066 1063.83 768.298C1041.79 782.694 1021.15 799.136 1002.16 817.406C984.857 838.553 972.736 863.487 966.786 890.199C945.908 959.884 920.777 988.612 864.52 1006.66C815.03 1022.58 766.504 1024.72 686.663 1014.43C592.128 1002.2 555.397 1006.66 515.574 1035.01C501.073 1045.29 464.343 1073.83 464.343 1074.99C464.343 1076.16 464.343 1074.99 489.86 1060.04C510.908 1046.22 533.404 1034.77 556.944 1025.88C586.328 1017.15 624.027 1017.73 694.396 1027.24C728.911 1033.33 763.95 1035.94 798.983 1035.01C876.312 1031.9 932.763 1013.07 964.081 979.488C979.131 961.581 991.624 941.655 1001.2 920.286C1007.88 906.898 1015.37 893.935 1023.62 881.465C1037.93 862.052 1058.42 847.105 1103.08 824.2C1117.58 816.825 1135.75 806.538 1143.87 801.491C1171.13 783.003 1193.81 758.502 1210.18 729.863C1219.59 708.268 1227.22 685.937 1232.99 663.09C1236.04 652.286 1239.85 641.711 1244.39 631.45C1256.77 607.186 1278.42 590.881 1327.72 568.753C1348.74 560.887 1367.95 548.8 1384.17 533.231C1404.43 511.651 1419.75 485.878 1429.02 457.723C1434.63 431.791 1430.71 404.699 1418 381.436C1406.4 358.144 1392.1 340.675 1349.95 298.746C1296.59 245.755 1283.65 231.002 1270.88 208.291C1263.16 195.934 1259.32 181.526 1259.86 166.946C1262 141.129 1281.32 125.6 1324.24 115.118C1358.17 107.921 1392.63 103.507 1427.28 101.919C1463.34 99.9207 1499.2 95.2493 1534.58 87.9428C1551 83.2842 1550.62 83.0903 1550.62 93.5721C1550.62 100.56 1550.62 102.889 1547.53 103.471C1516.44 109.063 1485.08 112.951 1453.57 115.118C1354.59 125.018 1323.66 132.394 1302.98 151.029C1282.29 169.663 1286.54 196.062 1313.8 231.584C1319.6 239.154 1342.22 263.224 1364.07 284.769C1410.08 330.581 1427.28 351.35 1441.4 380.078C1452.2 398.722 1458.43 419.681 1459.56 441.223C1460.68 451.524 1459.76 461.946 1456.85 471.893C1446.88 507.269 1426.04 538.583 1397.31 561.377C1383.04 570.367 1368.18 578.408 1352.86 585.447C1303.94 608.739 1288.09 619.61 1275.53 639.214C1263.98 659.031 1256.44 680.926 1253.29 703.66C1250.24 724.536 1243.7 744.748 1233.96 763.445C1212.57 798.587 1180.42 825.827 1142.32 841.088C1086.84 867.099 1071.95 876.029 1055.13 893.693C1039.74 911.305 1026.74 930.887 1016.47 951.925C1001.85 981.24 978.372 1005.16 949.388 1020.25C916.239 1035.02 880.911 1044.27 844.8 1047.62C801.729 1051.18 758.415 1050.53 715.467 1045.68C690.902 1042.71 666.165 1041.42 641.427 1041.8C578.209 1041.8 578.016 1041.8 484.642 1103.53C453.456 1120.91 421.166 1136.21 387.979 1149.34C354.57 1162.08 318.9 1167.77 283.199 1166.03C272.374 1166.03 242.602 1161.95 216.891 1158.46C143.235 1147.98 118.489 1147.78 72.2849 1158.46C48.2147 1161.41 25.2404 1170.28 5.39568 1184.28L0.75632 1189.52V1160.4C0.75632 1125.27 -0.984202 1127.6 28.015 1122.74C83.5781 1115.38 139.762 1113.95 195.625 1118.47C227.77 1121.62 260.141 1121.62 292.286 1118.47C332.049 1110.54 370.126 1095.69 404.799 1074.6C429.197 1059.05 452.753 1042.21 475.362 1024.14C488.969 1013.19 503.453 1003.38 518.666 994.824C545.884 984.166 575.337 980.561 604.308 984.342C628.086 986.282 634.465 987.06 687.243 995.213C758.774 1006.08 801.883 1004.72 847.313 990.165C863.486 985.959 878.615 978.444 891.757 968.089C904.897 957.733 915.763 944.764 923.677 929.992C933.744 909.551 940.9 887.791 944.941 865.352C948.398 844.757 954.915 824.8 964.274 806.15C980.847 784.327 1001.3 765.767 1024.59 751.41C1047.12 736.836 1068.45 720.477 1088.39 702.495C1121.85 674.224 1148.32 638.543 1165.72 598.258C1189.11 550.7 1207.67 532.841 1259.86 506.831C1279.53 499.612 1297.04 487.45 1310.71 471.505C1320.94 457.93 1326.43 441.356 1326.36 424.335C1327.74 414.283 1326.47 404.044 1322.69 394.636C1314.38 370.566 1299.88 350.381 1256.97 303.6C1226.21 273.9 1200.12 239.667 1179.64 202.079C1146.96 136.665 1161.46 77.655 1216.76 49.7035C1241.3 37.28 1266.44 30.2923 1330.62 20.3922C1354.17 16.2942 1378.18 15.4458 1401.96 17.8699L1402.92 18.2578Z" fill="#2E90FA"/>
</svg>
